<svg xmlns="http://www.w3.org/2000/svg" width="43" height="44" fill="none"><g clip-path="url(#a)"><path fill="#fff" fill-rule="evenodd" d="M.388 23.787c0-1.742 1.427-3.16 3.181-3.16s3.182 1.418 3.182 3.16-1.427 3.16-3.182 3.16-3.181-1.418-3.181-3.16m6.75 0c0-1.955-1.6-3.545-3.569-3.545S0 21.832 0 23.787s1.601 3.544 3.57 3.544 3.569-1.59 3.569-3.544M22.07 43.487c-.206 0-.328-.125-.333-.273-.005-.19.186-.294.313-.294.253 0 .412 0 .622-.302-.183.008-.587.024-1.196.024-.61 0-1.672-.065-1.672-.065S20.318 44 21.58 44c1.261 0 1.747-1.438 1.747-1.438-.079.008-.35.019-.35.019-.099.27-.448.906-.907.906M25.132 42.563c.116-.006.13-.034.173-.042.085-.015.217.074.201.223-.011.105-.101.236-.407.236-.307 0-.665-.249-.844-.48 0 0-.185.042-.375.053 0 0 .588.819 1.75.819 1.278 0 1.75-1.134 1.95-1.5-.823.22-1.409.398-2.792.565 0 0 .043.142.344.126M18.078 42.98c-.306 0-.396-.131-.407-.236-.016-.15.115-.238.2-.223.043.008.058.036.174.042.3.016.344-.126.344-.126-1.384-.167-1.97-.346-2.793-.566.2.367.673 1.501 1.95 1.501 1.162 0 1.75-.82 1.75-.82-.19-.01-.374-.052-.374-.052-.18.231-.538.48-.844.48M39.43 26.94c-1.754 0-3.181-1.417-3.181-3.16 0-1.742 1.427-3.16 3.182-3.16s3.182 1.418 3.182 3.16-1.428 3.16-3.182 3.16m0-6.704c-1.967 0-3.569 1.59-3.569 3.545s1.602 3.544 3.57 3.544S43 25.735 43 23.781c0-1.955-1.602-3.545-3.57-3.545M6.203 10.276c1.311-1.846 6.285-7.87 15.257-7.87s13.946 6.024 15.256 7.87c2.194 3.09 3.504 3.986 4.286 4.522l.029.02-.001.034c-.031.918-.304 3.958-2.529 4.517-1.538.387-3.14-.555-4.895-2.88-.064-.084-.155-.213-.26-.362-1.298-1.837-5.248-7.428-11.886-7.428s-10.588 5.59-11.886 7.428c-.105.149-.196.277-.26.362-1.756 2.325-3.357 3.267-4.896 2.88-2.214-.557-2.49-3.608-2.522-4.53l-.002-.035.029-.02c.734-.503 2.102-1.44 4.28-4.508M1.27 14.499s-.17 4.66 2.998 5.458c2.156.542 4.013-1.09 5.534-3.104.852-1.128 4.773-7.549 11.658-7.549s10.806 6.42 11.658 7.549c1.52 2.013 3.378 3.646 5.533 3.104 3.168-.797 2.999-5.458 2.999-5.458-.76-.546-2.064-1.233-4.435-4.572C34.892 6.655 29.633 1.8 21.46 1.8S8.028 6.655 5.705 9.927c-2.372 3.339-3.675 4.026-4.435 4.572" clip-rule="evenodd"/><path fill="#fff" fill-rule="evenodd" d="m40.396 13.024.005-.87c-1.405-1.28-2.067-2.57-2.067-2.57s.517-.193.744-.487a.8.8 0 0 0 .14-.532.62.62 0 0 0-.335-.45c-.162-.072-.464-.227-.796.23-.359.496-.286 1.435-.235 1.655 0 0 .621 1.183 2.544 3.024M7.694 16.435l-2.02-1.69 2.71.874.284-.337-1.29-2.57 2.031 1.693.631-.747-2.861-2.384-.693.82 1.3 2.667-2.789-.905-.597.706 2.862 2.385zM9.485 10.131l1.311.585-.647.69zm1.391 2.648-.486-.935.866-.923.977.412.721-.767-3.667-1.534-.637.678 1.79 3.534zM13.975 9.851l-1.411-2.243 3.153 1.162.679-.421-1.98-3.146-.76.472 1.4 2.224-3.12-1.157-.696.432 1.98 3.146zM21.219 5.836l1.468.025-.03 1.696.982.016.065-3.708-.982-.017-.027 1.515-1.467-.025.026-1.516-.981-.017-.066 3.709.982.017zM26.82 7.955l-1.341-.459.392-1.132 1.1.376.163-.471-1.1-.376.336-.967 1.13.386.162-.466-2.064-.705-1.216 3.507 2.275.778zM37.05 13.536l.218.24c.26.288.261.629-.036.895-.298.266-.672.209-.958-.106l-.168-.185zm-2.407 2.152 1.102-.986.325.359-.702 1.562.834.666.569-1.685c.007.008.578.289 1.208-.275.528-.472.35-1.119-.2-1.725l-1.017-1.123-2.776 2.483zM16.08 36.783l1.296 3.082.773.206.966-3.583-.865-.23-.684 2.533-1.275-3.054-.794-.212-.967 3.583.861.23zM21.026 40.414l.195-3.704-.98-.051-.196 3.704zM25.152 36.253l-3.05.425.07.489 1.046-.147.45 3.186.973-.136-.45-3.185 1.03-.144zM30.523 34.639c.876-.503 1.37-.056 1.699.53.474.826.379 1.428-.354 1.848l-.348.199-1.373-2.362zm1.652 2.778c1.308-.75 1.429-1.88.916-2.784-.619-1.075-1.635-1.1-2.78-.444l-1.266.726 1.874 3.223zM28.078 35.332l-2.076.67 1.154 3.527 2.289-.738-.155-.474-1.35.436-.373-1.14 1.107-.356-.155-.474-1.107.357-.318-.973 1.137-.367zM12.404 33.937l-.894-.492-1.17 2.097c-.646 1.157.168 1.87.8 2.217.679.374 1.666.653 2.306-.494l1.176-2.107-.893-.492-1.106 1.981c-.334.598-.678.976-1.24.654-.559-.308-.43-.766-.088-1.378zM2.207 21.959c.088-.11.058-.25.057-.316-.002-.065-.035-.173-.035-.24 0-.123-.077-.12-.127-.098-.434.2-.768.575-1.003.988a.56.56 0 0 0-.017.386c.055.107.225.466.367.545.142.078.165-.012.187-.099.094-.381.483-1.058.57-1.166M1.45 23.693c.028-.186-.284-.421-.341-.521s-.121-.175-.168-.248c-.066-.102-.133.018-.133.018-.08.264-.124.543-.124.833 0 .748.287 1.456.689 1.85.083.082.131.009.098-.144s-.132-1.088-.022-1.788M5.532 24.15c-.47.384-.982.593-1.703.61-.084.003-.128.134-.128.254s.076 1.025.373 1.361c.077.087.153.204.318.152 1.187-.382 2.07-1.45 2.07-2.752 0-.193-.038-.374-.056-.474-.022-.122-.115-.137-.157-.053-.043.084-.247.518-.717.902" clip-rule="evenodd"/><path fill="#fff" fill-rule="evenodd" d="M4.271 22.384c-.117.182-.531 1.174-.549 1.756-.006.197.162.36.428.322s.729-.026 1.472-.715c.165-.153.727-.803.545-1.236-.145-.343-.394-.63-.67-.876l-.193-.157s-.007.206-.145.36c-.138.155-.404.273-.679.35 0 0-.132.076-.209.196" clip-rule="evenodd"/><path fill="#fff" fill-rule="evenodd" d="M2.878 21.75c.342.107.825.262 1.22.262.393 0 .985-.126.985-.499 0-.115-.03-.196-.133-.26-.404-.254-.879-.347-1.377-.347-.329 0-.644.058-.939.155-.109.036-.175.21-.175.298 0 .087.077.286.419.392M3.635 26.643c.164.006.166-.105.057-.395-.167-.448-.266-1.179-.233-1.912.036-.812.367-1.498.466-1.781.1-.284-.066-.317-.22-.35-.153-.032-.358-.075-.46-.106-.19-.057-.253-.09-.418-.134-.165-.043-.384-.021-.483.153-.099.175-.719 1.073-.719 2.567 0 .463.133 1.369.49 1.567.345.192.926.392 1.458.392q.03-.001.062-.001M41.918 22.63a.55.55 0 0 0-.017-.386c-.235-.413-.57-.79-1.004-.988-.05-.023-.126-.025-.126.097 0 .068-.034.175-.035.241s-.031.206.057.315.476.785.57 1.167c.022.087.045.176.188.098.142-.078.312-.437.367-.545M42.192 22.893s-.067-.12-.133-.018c-.047.073-.11.148-.168.248-.057.1-.37.335-.34.52.11.701.01 1.636-.023 1.789-.032.152.016.226.1.144.4-.394.688-1.102.688-1.85q-.001-.437-.124-.833M39.172 24.712c-.721-.018-1.234-.227-1.704-.611s-.673-.818-.716-.902-.136-.07-.158.052c-.018.1-.055.282-.055.474 0 1.302.883 2.37 2.07 2.752.164.053.24-.064.317-.151.297-.337.374-1.242.374-1.361 0-.12-.044-.251-.128-.253" clip-rule="evenodd"/><path fill="#fff" fill-rule="evenodd" d="M37.378 23.698c.743.689 1.206.678 1.472.715.266.038.433-.125.427-.323-.017-.582-.432-1.573-.549-1.756-.077-.12-.208-.196-.208-.196-.275-.076-.54-.194-.679-.349-.138-.154-.145-.36-.145-.36l-.193.157c-.276.245-.526.533-.67.876-.182.433.38 1.083.544 1.236" clip-rule="evenodd"/><path fill="#fff" fill-rule="evenodd" d="M38.903 21.963c.394 0 .877-.155 1.219-.261s.418-.305.418-.393c0-.087-.066-.261-.174-.297a3 3 0 0 0-.939-.155c-.499 0-.973.093-1.377.346-.102.064-.133.146-.133.26 0 .374.592.5.986.5M40.173 21.916c-.165.044-.228.077-.417.134-.103.03-.308.073-.461.106s-.32.066-.22.35c.099.283.43.969.466 1.78.033.734-.066 1.465-.233 1.912-.109.29-.107.401.058.396h.061c.532 0 1.114-.2 1.459-.392.356-.198.49-1.103.49-1.566 0-1.494-.62-2.392-.72-2.567-.099-.174-.318-.196-.483-.153M4.607 9.565s-.663 1.286-2.068 2.566l.005.821c1.869-1.845 2.523-2.978 2.523-2.978.052-.22.146-1.153-.214-1.648-.331-.458-.633-.303-.796-.231a.62.62 0 0 0-.335.45c-.023.15.024.371.14.533.228.293.745.487.745.487" clip-rule="evenodd"/><path fill="#fff" fill-rule="evenodd" d="M2.22 11.96c1.208-1.124 1.69-1.92 1.88-2.245-.339-.165-.464-.366-.563-.506 0 0-.132-.25-.148-.398-.745.817-1.784 1.86-2.025 2.065a1 1 0 0 0-.293.617c-.011.2.058.374.167.495.282.315.781.16.982-.027M40.721 12.023c.203.185.724.258.983-.015a.66.66 0 0 0 .155-.495.9.9 0 0 0-.282-.59c-.241-.206-1.318-1.285-2.064-2.096-.017.149-.01.3-.146.489 0 0-.226.25-.565.416.19.325.686 1.164 1.92 2.29M16.798.322c-.455 0-.84.172-.93.488-.084.288.144.411.227.39s.145-.04.124-.123.041-.287.331-.287.403.267.403.452-.3.493-.837.493c-.538 0-.809-.35-.788-.68-.259.375-.449.887-.56 1.523 1.49-.496 2.86-.893 4.691-1.054C18.616.94 17.663.322 16.8.322M27.596 1.067c.02.328-.25.679-.788.679s-.838-.309-.838-.494.114-.452.403-.452.352.206.332.288c-.021.082.04.103.124.123.082.02.31-.103.227-.39-.09-.316-.476-.488-.93-.488-.866 0-1.818.618-2.662 1.201 1.832.162 3.202.559 4.691 1.055-.11-.636-.3-1.148-.56-1.522" clip-rule="evenodd"/><mask id="b" width="3" height="2" x="20" y="0" maskUnits="userSpaceOnUse" style="mask-type:luminance"><path fill="#fff" fill-rule="evenodd" d="M20.24 0h2.502v1.495H20.24z" clip-rule="evenodd"/></mask><g mask="url(#b)"><path fill="#fff" fill-rule="evenodd" d="M22.742 1.495C22.469.868 21.953.001 21.593.001c-.07 0-.228-.037-.523.302 0 0-.046.148.142.12.238-.036.328.208.31.329-.041.283-.372.555-.704.555-.33 0-.432-.053-.432-.053-.05.078-.093.136-.145.223a37 37 0 0 1 1.28-.031c.28 0 1.051.037 1.22.05" clip-rule="evenodd"/></g><path fill="#fff" fill-rule="evenodd" d="m30.15 10.717.73.652 2.167-2.39.773.691.332-.366-2.284-2.042-.336.362.785.703zM33.468 14.232l.384-.32-.912-1.08.924-.77.748.885.384-.32-.748-.885.789-.658.768.91.38-.317-1.403-1.66-2.861 2.384zM27.112 8.243c.11.373.366.764.928 1.1.696.415 1.457.348 1.811-.238.26-.409.262-.747-.047-1.352-.084-.175-.186-.299-.256-.454-.136-.256-.263-.464-.143-.662.128-.212.428-.228.702-.064.288.171.407.456.464.653l.453-.194a1.78 1.78 0 0 0-.809-.972c-.798-.477-1.45-.35-1.72.097-.274.451-.196.824.008 1.209 0 0 .13.222.206.368.178.3.387.676.242.916-.178.295-.49.36-.789.176-.384-.242-.474-.522-.555-.796zM18.691 7.848c.514-.097.795-.304 1.065-.559l-.342-.387a1.25 1.25 0 0 1-.744.436c-.896.19-1.431-.535-1.565-1.158-.197-.921.344-1.56.961-1.69.432-.092.699.021.868.09l.005-.002.114-.472c-.295-.119-.649-.197-1.197-.082-1.223.259-2.024 1.15-1.76 2.358.151.652.74 1.858 2.595 1.466M34.415 41.343h-.341v-.46h.34c.23.011.282.113.282.23s-.052.22-.282.23m.216.096v-.004a.35.35 0 0 0 .281-.357c0-.293-.258-.371-.508-.371h-.533v1.482h.207v-.67h.289c.083.007.165 0 .225.068.068.074.068.195.085.329.01.088.035.184.053.273h.222c-.054-.14-.07-.298-.093-.446-.023-.166-.048-.26-.228-.303" clip-rule="evenodd"/><path fill="#fff" fill-rule="evenodd" d="M34.388 42.456a.994.994 0 0 1-.996-.99c0-.545.447-.988.996-.988.55 0 .996.443.996.989 0 .545-.447.989-.996.989m0-2.132c-.635 0-1.151.512-1.151 1.143 0 .63.516 1.143 1.15 1.143.636 0 1.152-.513 1.152-1.143s-.516-1.143-1.151-1.143M24.802 25.498v-.645s-.174-.268-.602-.268c-.427 0-.681.126-.681.236 0 .173.38.677 1.283.677M18.229 14.166v-.445l-1.817 1.925 1.183.288z" clip-rule="evenodd"/><path fill="#fff" fill-rule="evenodd" d="M20.794 21.168c-.134.07-.31-.02-.344-.255-.02-.134-.057-.421.007-.449.058-.025.254.142.35.291.094.15.122.342-.013.413m.495 2.055a4 4 0 0 1-.406-.934h.804s-.117.476-.398.934m.4-2.468c.095-.15.304-.316.362-.29.063.027.019.31-.005.448-.04.234-.21.326-.345.255-.134-.07-.107-.263-.012-.413m7.492-3.924h-3.029v-.69h-1.12v-.459h.914V13.67h-.84l-.284-.55-.286.55h-.84v2.013h.915v.458h-2.195v-.458h.914V13.67h-.839l-.285-.55-.286.55h-.84v2.013h.915v.458h-2.238v-.458h.914V13.67h-.84l-.284-.55-.285.55h-.84v2.013h.914v.458l-1.77.005-1.763-.409.331 1.095h-2.383v-4.163h15.43zm-15.43 1.582h15.43v-1.045h-15.43zm13.085 4.504h-1.258v.925c.285.267.555.87.555 1.231s-.238.519-.238.519c.08.283.063.401.032.66-.033.266-.364.677-.364.677v4.796c0 .327-.76.295-.76.016v-4.702c-.429-.472-1.6-.834-1.6-.834-.428.425-.697 1.164-.697 1.164.19.126.475 0 .586-.125.11-.126.332-.158.459-.079s.158.11.11.299c-.047.189-.126.502-.126.722s.253.173.444.189c.38.03.443.456.411.692-.031.235-.142.739-.142 1.053 0 .315.016.63.047.803.032.173.095.362.08.582-.022.298-.206.346-.396.157s-2.836-2.989-2.836-2.989c-.174.567.554 1.542.792 1.84.238.3.222.52.016.724-.206.205-.602.315-.681.504s.19.755.744 1.463c.555.707-.633 1.18-1.346 1.321s-.713-.346-.666-.614c.048-.267.048-.424.032-.66s-.237-.567-.538-.96-.301-.755-.175-1.667c.127-.912.095-1.495.095-1.495s-.316.016-.776 0c-.46-.015-.84-.28-.87-1.382-.033-1.101-.059-3.728-.133-4-.074-.273-.37-.326-.496-.357-.127-.032-.136-.22-.01-.283.33-.164.728-.567.58-.818-.148-.252-.729-.2-1.12-.01-.39.188-.802.597-.908.712-.105.116-.19.116-.179-.01.01-.126-.074-.724-.127-.933a4 4 0 0 0-.306-.713c-.063-.105 0-.147.106-.105.105.042.338.136.56.199.221.063.432-.042.538-.252.105-.21.306-.66.412-.86s.274-.157.412-.125c.137.031.264.115.39.167.127.053.232.042.275-.02.042-.063.095-.085.169-.242s.169-.084.18-.02c.378 2.255 1.361 2.359 1.361 2.359-.147.377-.496.975-.58 1.122-.085.147-.116.346-.138.503-.02.157.053 1.646.159 2.192.105.545.443.335.549.167s.433-.86.433-.86.084-.188.084-.345c0-.158-.274-.504-.338-.609-.063-.105-.295-.314-.295-.839s.475-.89.644-1.027a.44.44 0 0 0 .148-.44c-.075-.406-.507-1.26-.718-1.584-.212-.325-.623-.944-.623-.944h.855l.55-1.133.601 1.138.623.005.65-1.122.507 1.122h.84c-.508.472-.714 1.186-.714 1.657v.52c0 .22-.11.581-.11.581s.727.553.84.646c.047.039.096.062.062.157-.058.162-.549.38-.602.424-.11.095-.14.157-.108.252.032.094.124.11.314.047s.586-.267.919-.409.776-.11.776-.11v-.629h-1.251v-2.013l-.222-.352.555-.975.554.98-.222.347v1.053h.642v-1.053l-.222-.346.554-.976.555.976-.222.346v1.053h.641v-1.053l-.222-.346.555-.976.554.976-.221.346zm1.829-10.776H14.289c-.352.25-.944.781-1.096.934v17.276l8.267 5.277 8.266-5.277V13.07c-.305-.267-.834-.754-1.061-.928" clip-rule="evenodd"/><path fill="#fff" fill-rule="evenodd" d="M36.65 27.104c-1.488 0-2.117.793-2.487 1.211-2.989 3.38-7.09 5.855-11.015 6.427l-1.127.719c4.292-.207 9.069-2.752 12.6-6.746l.052-.058c.35-.4.83-.948 1.977-.948.67 0 1.427.355 1.93.905.377.41.803 1.131.698 2.234-.143 1.507-2.552 5.414-6.842 7.835-3.457 1.952-7.15 2.941-10.976 2.941s-7.519-.99-10.977-2.94c-4.29-2.422-6.698-6.33-6.842-7.836-.104-1.103.322-1.824.699-2.234.503-.55 1.26-.905 1.93-.905 1.146 0 1.626.548 1.977.948l.051.058c3.531 3.994 8.307 6.537 12.599 6.745l-1.123-.717c-3.926-.571-8.028-3.047-11.017-6.428-.37-.418-.999-1.212-2.488-1.212s-3.468 1.348-3.235 3.802c.17 1.788 2.745 5.82 7.148 8.305s8.458 3.02 11.278 3.02 6.874-.535 11.278-3.02c4.403-2.485 6.978-6.517 7.148-8.305.233-2.454-1.747-3.802-3.236-3.802" clip-rule="evenodd"/></g><defs><clipPath id="a"><path fill="#fff" d="M0 0h43v44H0z"/></clipPath></defs></svg>