<svg xmlns="http://www.w3.org/2000/svg" width="231" height="45" fill="none"><g clip-path="url(#a)"><path fill="#fff" d="M0 23.168v-9.171h3.377v9.477c0 3.453 1.196 4.617 3.147 4.617s3.213-1.165 3.213-4.617v-9.477h3.25v9.171c0 5.546-2.359 7.838-6.463 7.838C2.419 31.006 0 28.714 0 23.168M37.873 13.997h3.376V30.7h-3.376zM50.485 16.826h-4.72v-2.83h12.812v2.83h-4.72v13.875h-3.376V16.826zM63.127 13.997h10.279v2.83h-6.903v3.817h5.862v2.83h-5.862v4.398h7.158v2.83H63.126zM78.677 13.997h4.596c5.118 0 8.282 2.65 8.282 8.282 0 5.633-3.16 8.422-8.1 8.422h-4.778zM83.06 27.98c3.104 0 5.032-1.652 5.032-5.702s-1.928-5.562-5.032-5.562h-1.01V27.98zM28.59 13.997v11.765l-1.365-2.919-4.786-8.85h-3.463v16.705h3.214V18.933l1.362 2.899 4.786 8.866H31.8V13.994h-3.214z"/><path fill="#fff" fill-rule="evenodd" d="M99.661 24.287c0-1.742 1.445-3.16 3.22-3.16s3.22 1.418 3.22 3.16-1.445 3.16-3.22 3.16-3.22-1.418-3.22-3.16m6.832 0c0-1.955-1.621-3.545-3.612-3.545s-3.612 1.59-3.612 3.545 1.62 3.544 3.612 3.544 3.612-1.59 3.612-3.544M121.602 43.987c-.209 0-.333-.125-.337-.273-.006-.19.187-.294.316-.294.256 0 .417 0 .629-.302a28 28 0 0 1-1.21.024c-.616 0-1.692-.065-1.692-.065s.521 1.423 1.799 1.423c1.276 0 1.768-1.438 1.768-1.438-.08.008-.355.019-.355.019-.1.27-.453.906-.918.906M124.699 43.063c.118-.006.133-.034.176-.042.086-.016.219.073.203.223-.011.104-.102.236-.412.236s-.672-.25-.854-.48c0 0-.187.042-.379.053 0 0 .595.819 1.77.819 1.294 0 1.771-1.134 1.974-1.501-.834.22-1.426.398-2.826.566 0 0 .044.142.348.126M117.562 43.48c-.31 0-.401-.132-.412-.236-.016-.15.117-.239.203-.223.043.008.058.036.175.042.305.016.348-.126.348-.126-1.399-.168-1.992-.346-2.825-.566.203.367.68 1.5 1.973 1.5 1.176 0 1.771-.818 1.771-.818-.192-.01-.379-.053-.379-.053-.182.23-.544.48-.854.48M139.168 27.44c-1.775 0-3.219-1.417-3.219-3.16 0-1.742 1.444-3.16 3.219-3.16 1.776 0 3.22 1.418 3.22 3.16s-1.444 3.16-3.22 3.16m0-6.704c-1.991 0-3.611 1.59-3.611 3.545s1.62 3.544 3.611 3.544 3.612-1.59 3.612-3.544c0-1.955-1.62-3.545-3.612-3.545M105.546 10.776c1.326-1.846 6.359-7.87 15.437-7.87 9.079 0 14.112 6.024 15.438 7.87 2.22 3.09 3.545 3.986 4.337 4.522l.029.02-.001.034c-.031.918-.308 3.958-2.559 4.517-1.556.387-3.176-.555-4.953-2.88a14 14 0 0 1-.263-.362c-1.314-1.837-5.311-7.428-12.028-7.428-6.716 0-10.713 5.59-12.027 7.428-.106.149-.198.277-.263.362-1.777 2.325-3.397 3.267-4.953 2.88-2.242-.557-2.521-3.608-2.553-4.53l-.001-.035.028-.02c.744-.503 2.127-1.44 4.332-4.508m-4.993 4.223s-.171 4.66 3.035 5.458c2.18.542 4.06-1.09 5.599-3.104.862-1.128 4.83-7.549 11.796-7.549 6.967 0 10.935 6.42 11.797 7.549 1.539 2.013 3.418 3.646 5.599 3.104 3.205-.797 3.034-5.458 3.034-5.458-.769-.546-2.088-1.233-4.487-4.572-2.351-3.272-7.672-8.126-15.943-8.126-8.27 0-13.591 4.854-15.942 8.126-2.399 3.339-3.718 4.026-4.488 4.572" clip-rule="evenodd"/><path fill="#fff" fill-rule="evenodd" d="m140.145 13.525.005-.87c-1.422-1.28-2.092-2.57-2.092-2.57s.523-.194.754-.488a.78.78 0 0 0 .141-.532.62.62 0 0 0-.339-.45c-.164-.072-.47-.227-.805.23-.364.496-.29 1.435-.238 1.656 0 0 .628 1.182 2.574 3.024M107.055 16.935l-2.045-1.69 2.742.874.288-.337-1.306-2.57 2.056 1.694.639-.748-2.896-2.384-.701.82 1.315 2.667-2.821-.905-.604.706 2.895 2.385zM108.866 10.631l1.328.585-.656.69zm1.409 2.648-.492-.935.876-.923.989.412.729-.767-3.711-1.534-.644.678 1.811 3.534zM113.41 10.351l-1.428-2.243 3.191 1.162.687-.421-2.003-3.146-.769.472 1.416 2.224-3.156-1.157-.705.432 2.002 3.146zM120.74 6.336l1.485.025-.03 1.696.994.017.066-3.71-.994-.016-.027 1.515-1.485-.025.027-1.516-.993-.017-.066 3.71.993.016zM126.408 8.455l-1.358-.459.398-1.132 1.112.376.166-.471-1.113-.376.339-.967 1.144.386.163-.466-2.088-.705-1.231 3.507 2.303.778zM136.76 14.036l.22.24c.264.288.265.629-.036.895s-.68.209-.969-.106l-.17-.185zm-2.436 2.152 1.116-.986.328.359-.71 1.562.844.666.575-1.685c.008.008.585.289 1.223-.275.534-.472.354-1.119-.202-1.725l-1.03-1.123-2.809 2.483zM115.541 37.283l1.31 3.082.783.206.978-3.583-.876-.23-.692 2.533-1.29-3.054-.804-.212-.978 3.583.871.23zM120.545 40.915l.198-3.705-.992-.051-.198 3.704zM124.719 36.753l-3.085.425.069.489 1.059-.147.456 3.186.984-.136-.456-3.185 1.043-.144zM130.154 35.139c.887-.503 1.388-.056 1.72.53.48.826.383 1.428-.358 1.848l-.352.199-1.39-2.362zm1.673 2.778c1.323-.75 1.445-1.88.927-2.784-.627-1.075-1.655-1.1-2.814-.444l-1.281.726 1.896 3.223zM127.68 35.832l-2.1.67 1.168 3.527 2.316-.738-.157-.474-1.366.436-.377-1.14 1.12-.356-.157-.474-1.12.357-.322-.973 1.151-.366zM111.82 34.436l-.904-.491-1.185 2.097c-.653 1.157.171 1.87.81 2.217.687.374 1.686.653 2.334-.495l1.19-2.106-.904-.492-1.119 1.981c-.338.598-.686.976-1.255.654-.565-.308-.435-.766-.089-1.378zM101.502 22.458c.089-.109.059-.25.058-.315-.002-.066-.036-.173-.036-.24 0-.123-.077-.12-.128-.098-.439.2-.777.575-1.015.988a.55.55 0 0 0-.017.386c.056.107.228.466.372.544.143.079.167-.011.188-.098.096-.382.489-1.058.578-1.167M100.736 24.192c.029-.185-.287-.42-.345-.52s-.122-.175-.17-.248c-.066-.102-.134.018-.134.018a2.8 2.8 0 0 0-.126.833c0 .748.291 1.456.697 1.85.084.082.133.009.1-.144s-.133-1.088-.022-1.789M104.867 24.65c-.475.384-.994.593-1.724.61-.085.003-.129.134-.129.254s.077 1.025.377 1.361c.078.087.155.204.322.152 1.201-.382 2.094-1.45 2.094-2.752 0-.193-.037-.374-.056-.474-.022-.122-.116-.137-.159-.053-.044.084-.25.518-.725.902" clip-rule="evenodd"/><path fill="#fff" fill-rule="evenodd" d="M103.591 22.884c-.118.182-.538 1.174-.555 1.756-.006.197.163.36.432.322.27-.037.738-.026 1.49-.715.167-.153.736-.803.551-1.236-.146-.343-.398-.63-.678-.876l-.195-.157s-.007.206-.147.36c-.139.155-.409.273-.686.35 0 0-.134.076-.212.196" clip-rule="evenodd"/><path fill="#fff" fill-rule="evenodd" d="M102.181 22.25c.346.107.835.262 1.234.262.398 0 .997-.126.997-.5 0-.114-.031-.195-.134-.26-.409-.253-.889-.346-1.394-.346-.332 0-.651.057-.95.155-.11.036-.176.21-.176.297 0 .088.077.287.423.393M102.947 27.143c.166.006.168-.105.058-.396-.17-.447-.27-1.178-.236-1.911.037-.812.372-1.498.472-1.782.1-.283-.067-.316-.223-.349-.155-.032-.362-.075-.466-.106-.191-.057-.256-.09-.423-.134-.166-.043-.388-.021-.489.153-.1.175-.727 1.073-.727 2.567 0 .463.135 1.369.496 1.567.349.191.937.391 1.475.391zM141.685 23.13a.55.55 0 0 0-.017-.386c-.237-.413-.576-.789-1.015-.988-.05-.023-.128-.025-.128.097 0 .068-.034.175-.036.241s-.031.206.058.315.482.786.578 1.167c.022.087.045.176.189.098s.316-.437.371-.545M141.962 23.393s-.068-.12-.134-.018c-.048.073-.112.148-.17.247-.058.1-.374.336-.345.521.111.701.011 1.636-.022 1.789-.033.152.016.226.1.144.406-.394.697-1.103.697-1.85a2.8 2.8 0 0 0-.126-.833M138.906 25.212c-.73-.018-1.249-.227-1.724-.611-.476-.384-.682-.818-.725-.902s-.137-.07-.159.053c-.019.1-.057.28-.057.474 0 1.301.894 2.37 2.095 2.751.167.053.244-.064.321-.15.3-.338.378-1.243.378-1.362 0-.12-.044-.251-.129-.253" clip-rule="evenodd"/><path fill="#fff" fill-rule="evenodd" d="M137.091 24.198c.753.689 1.221.678 1.49.715.269.038.438-.125.432-.323-.017-.581-.437-1.573-.555-1.755-.078-.12-.211-.197-.211-.197-.278-.076-.547-.194-.687-.348-.14-.155-.147-.36-.147-.36l-.195.156c-.28.245-.532.533-.678.876-.185.433.384 1.083.551 1.236" clip-rule="evenodd"/><path fill="#fff" fill-rule="evenodd" d="M138.634 22.463c.399 0 .888-.155 1.234-.261s.423-.305.423-.393c0-.087-.067-.261-.176-.297a3 3 0 0 0-.95-.155c-.505 0-.985.093-1.394.346-.103.064-.134.146-.134.26 0 .374.599.5.997.5M139.919 22.416c-.166.044-.231.077-.422.134-.104.03-.311.074-.467.106-.155.033-.322.066-.222.35.1.283.435.969.472 1.78.033.734-.067 1.465-.236 1.912-.11.291-.108.401.058.396h.063c.538 0 1.126-.2 1.475-.392.361-.198.496-1.103.496-1.566 0-1.494-.628-2.392-.728-2.567-.1-.174-.322-.196-.489-.153M103.931 10.065s-.671 1.286-2.093 2.566l.005.821c1.891-1.845 2.554-2.978 2.554-2.978.052-.22.147-1.153-.217-1.648-.335-.458-.641-.303-.805-.231a.62.62 0 0 0-.339.45c-.024.15.024.371.142.533.23.293.753.487.753.487" clip-rule="evenodd"/><path fill="#fff" fill-rule="evenodd" d="M101.515 12.46c1.223-1.124 1.711-1.92 1.904-2.245-.344-.165-.471-.367-.571-.506 0 0-.134-.25-.15-.399-.753.818-1.804 1.86-2.048 2.066a1 1 0 0 0-.297.617.67.67 0 0 0 .169.495c.285.314.79.159.993-.028M140.475 12.523c.204.185.732.258.993-.015a.65.65 0 0 0 .158-.495.9.9 0 0 0-.286-.591c-.244-.205-1.333-1.285-2.089-2.095-.016.149-.009.3-.147.489 0 0-.228.25-.572.416.192.325.695 1.164 1.943 2.29M116.267.822c-.461 0-.85.172-.942.488-.084.288.146.411.23.39s.147-.04.126-.123.041-.287.335-.287c.293 0 .407.267.407.452s-.303.493-.847.493c-.545 0-.818-.35-.797-.679-.262.375-.454.886-.566 1.522 1.506-.496 2.893-.892 4.746-1.054-.853-.584-1.817-1.202-2.692-1.202M127.193 1.567c.021.329-.253.679-.798.679-.544 0-.847-.308-.847-.493s.115-.453.408-.453.356.206.335.288.042.103.125.123c.084.021.315-.102.231-.39-.092-.316-.482-.488-.942-.488-.876 0-1.839.618-2.693 1.202 1.854.161 3.24.558 4.747 1.054-.112-.636-.305-1.148-.566-1.522" clip-rule="evenodd"/><mask id="b" width="4" height="2" x="119" y="0" maskUnits="userSpaceOnUse" style="mask-type:luminance"><path fill="#fff" fill-rule="evenodd" d="M119.75.5h2.531v1.495h-2.531z" clip-rule="evenodd"/></mask><g mask="url(#b)"><path fill="#fff" fill-rule="evenodd" d="M122.281 1.995c-.276-.627-.798-1.494-1.162-1.494-.071 0-.23-.037-.529.302 0 0-.047.148.143.12.241-.036.332.208.314.329-.042.283-.377.555-.712.555s-.438-.053-.438-.053c-.049.078-.093.136-.147.223a38 38 0 0 1 1.296-.031c.283 0 1.064.037 1.235.05" clip-rule="evenodd"/></g><path fill="#fff" fill-rule="evenodd" d="m129.776 11.217.739.652 2.193-2.39.782.691.336-.366-2.311-2.042-.34.362.794.702zM133.135 14.732l.389-.32-.924-1.08.935-.77.757.885.389-.32-.757-.885.798-.658.778.91.385-.317-1.42-1.66-2.896 2.384zM126.704 8.743c.11.373.369.764.938 1.1.704.415 1.474.348 1.833-.237.263-.41.265-.747-.048-1.353-.085-.175-.188-.299-.259-.454-.137-.256-.266-.464-.145-.662.13-.212.434-.228.711-.064.291.172.411.456.47.653l.457-.194a1.79 1.79 0 0 0-.818-.972c-.808-.476-1.467-.35-1.74.097-.277.452-.198.824.007 1.21 0 0 .133.221.209.367.181.301.392.677.245.916-.18.295-.495.36-.798.176-.389-.242-.48-.522-.561-.795zM118.182 8.348c.52-.098.804-.305 1.078-.559l-.346-.387a1.26 1.26 0 0 1-.753.436c-.907.19-1.449-.535-1.583-1.158-.2-.921.347-1.561.971-1.691.438-.091.708.022.879.09h.005l.115-.473c-.299-.119-.656-.197-1.211-.082-1.237.258-2.048 1.15-1.781 2.358.153.652.748 1.858 2.626 1.466M134.093 41.843h-.345v-.46h.345c.232.01.284.113.284.23s-.052.22-.284.23m.219.096v-.004a.354.354 0 0 0 .285-.357c0-.293-.262-.371-.515-.371h-.539v1.481h.209v-.668h.293c.083.006.167 0 .228.067.069.074.069.195.085.329.011.088.036.184.055.273h.223c-.054-.14-.071-.298-.094-.446-.023-.166-.048-.26-.23-.303" clip-rule="evenodd"/><path fill="#fff" fill-rule="evenodd" d="M134.066 42.956a1 1 0 0 1-1.008-.99 1 1 0 0 1 1.008-.989 1 1 0 0 1 1.008.99 1 1 0 0 1-1.008.989m0-2.132c-.643 0-1.165.512-1.165 1.143 0 .63.522 1.143 1.165 1.143.642 0 1.164-.513 1.164-1.143s-.522-1.143-1.164-1.143M124.366 25.998v-.645s-.177-.268-.609-.268c-.433 0-.69.126-.69.236 0 .173.385.677 1.299.677M117.715 14.666v-.445l-1.839 1.924 1.197.29z" clip-rule="evenodd"/><path fill="#fff" fill-rule="evenodd" d="M120.31 21.668c-.136.071-.313-.02-.348-.255-.02-.134-.058-.421.007-.449.059-.025.257.142.353.291.097.15.125.342-.012.413m.501 2.055c-.28-.446-.41-.934-.41-.934h.813s-.118.476-.403.934m.405-2.468c.096-.15.307-.316.366-.29.064.027.019.31-.005.448-.041.234-.213.326-.349.255-.136-.07-.108-.263-.012-.413m7.581-3.924h-3.065v-.69h-1.134v-.458h.925v-2.014h-.849l-.289-.55-.288.55h-.85v2.014h.926v.457h-2.222v-.457h.926v-2.014h-.85l-.289-.55-.288.55h-.85v2.014h.925v.457h-2.264v-.457h.925v-2.014h-.85l-.288-.55-.289.55h-.849v2.014h.925v.457l-1.791.005-1.784-.409.335 1.095h-2.411v-4.163h15.613zm-15.613 1.582h15.613v-1.045h-15.613zm13.24 4.504h-1.273v.925c.289.267.561.87.561 1.231s-.24.52-.24.52c.08.282.064.4.032.66-.033.265-.369.676-.369.676v4.796c0 .327-.769.295-.769.016v-4.702c-.433-.472-1.619-.834-1.619-.834-.433.425-.705 1.165-.705 1.165.192.125.481 0 .593-.126s.337-.158.465-.079.16.11.112.3c-.048.188-.128.5-.128.72 0 .221.256.174.449.19.384.031.448.456.416.692s-.144.74-.144 1.054.016.629.048.802.096.362.08.582c-.022.298-.208.346-.4.157s-2.87-2.988-2.87-2.988c-.176.566.561 1.541.802 1.84.24.299.224.52.016.724s-.609.314-.69.503.193.755.754 1.463c.561.707-.641 1.18-1.363 1.321-.721.141-.721-.346-.673-.614.048-.267.048-.424.032-.66s-.24-.566-.545-.96c-.304-.393-.304-.755-.176-1.667s.096-1.494.096-1.494-.32.015-.785 0c-.465-.016-.85-.282-.882-1.383s-.058-3.728-.133-4c-.075-.273-.374-.325-.502-.357-.129-.032-.138-.22-.01-.283.334-.164.736-.566.587-.818s-.738-.2-1.133-.01c-.395.188-.812.597-.919.712-.107.116-.192.116-.182-.01s-.074-.724-.128-.933a4 4 0 0 0-.31-.713c-.064-.105 0-.147.107-.105s.342.136.566.199a.46.46 0 0 0 .545-.252c.107-.21.31-.66.417-.86s.278-.157.417-.125c.139.031.267.115.395.168.128.052.235.041.278-.021.043-.063.096-.084.171-.242s.171-.084.182-.02c.383 2.255 1.378 2.359 1.378 2.359-.15.377-.502.975-.588 1.122s-.117.346-.139.503c-.021.157.054 1.646.161 2.192.106.545.448.335.555.168.107-.168.438-.86.438-.86s.086-.189.086-.346c0-.158-.278-.504-.342-.608-.064-.105-.299-.315-.299-.84s.481-.89.651-1.027a.44.44 0 0 0 .15-.44c-.075-.406-.513-1.259-.726-1.584-.214-.325-.631-.944-.631-.944h.866l.555-1.132.609 1.137.631.006.657-1.122.513 1.122h.85c-.513.471-.722 1.185-.722 1.657v.519c0 .22-.112.582-.112.582s.736.552.85.645c.048.039.098.062.064.157-.059.162-.556.38-.609.424-.113.095-.143.157-.11.252s.126.11.318.047c.192-.062.593-.267.929-.409s.786-.11.786-.11v-.629H123.1v-2.013l-.225-.352.561-.975.561.98-.224.347v1.054h.649v-1.054l-.224-.346.561-.976.561.976-.225.346v1.054h.649v-1.054l-.224-.346.561-.976.561.976-.225.346zm1.851-10.776h-14.547c-.356.25-.956.781-1.109.934v17.276c.089.056 8.26 5.212 8.365 5.277l8.365-5.277V13.57c-.309-.267-.844-.754-1.074-.928" clip-rule="evenodd"/><path fill="#fff" fill-rule="evenodd" d="M136.355 27.603c-1.507 0-2.143.794-2.517 1.212-3.025 3.38-7.175 5.855-11.146 6.427l-1.14.719c4.342-.207 9.176-2.752 12.75-6.746l.052-.058c.354-.4.84-.948 2.001-.948.676 0 1.443.355 1.952.905.381.41.813 1.131.707 2.234-.145 1.507-2.582 5.414-6.923 7.835-3.499 1.952-7.236 2.941-11.107 2.941-3.872 0-7.608-.99-11.107-2.94-4.341-2.422-6.779-6.33-6.924-7.836-.106-1.103.326-1.824.707-2.234.509-.55 1.276-.905 1.953-.905 1.16 0 1.646.548 2.001.948l.052.058c3.573 3.994 8.406 6.537 12.748 6.744l-1.136-.716c-3.973-.571-8.124-3.047-11.149-6.428-.374-.418-1.01-1.212-2.516-1.212s-3.51 1.348-3.274 3.802c.172 1.788 2.777 5.82 7.233 8.305s8.559 3.02 11.412 3.02 6.956-.535 11.412-3.02c4.455-2.485 7.061-6.517 7.233-8.305.235-2.454-1.768-3.802-3.274-3.802" clip-rule="evenodd"/><path fill="#fff" d="m150.495 28.73 1.95-2.313c1.193 1.088 2.769 1.825 4.234 1.825 1.732 0 2.636-.737 2.636-1.884 0-1.214-1.017-1.602-2.506-2.223l-2.23-.958c-1.692-.694-3.38-2.057-3.38-4.492 0-2.713 2.416-4.842 5.789-4.842 1.941 0 3.895.782 5.271 2.159l-1.718 2.13c-1.083-.876-2.177-1.374-3.553-1.374s-2.376.644-2.376 1.732c0 1.167 1.183 1.599 2.609 2.172l2.193.903c2.018.825 3.354 2.132 3.354 4.524 0 2.74-2.287 5.072-6.158 5.072-2.22 0-4.467-.856-6.115-2.432M171.365 16.977h-4.719v-2.83h12.815v2.83h-4.719v13.875h-3.377zM182.628 22.43c0-5.43 3.054-8.59 7.491-8.59s7.491 3.177 7.491 8.59-3.055 8.727-7.491 8.727c-4.437 0-7.491-3.297-7.491-8.727m11.519 0c0-3.549-1.569-5.672-4.028-5.672-2.46 0-4.028 2.123-4.028 5.672 0 3.55 1.572 5.812 4.028 5.812s4.028-2.262 4.028-5.812M215.635 30.852l-3.891-6.82c1.894-.753 3.16-2.311 3.16-4.806 0-3.85-2.795-5.078-6.311-5.078h-5.832v16.704h3.376v-6.269h2.317l3.396 6.27zm-9.498-14.02h2.15c2.144 0 3.301.606 3.301 2.394s-1.16 2.67-3.301 2.67h-2.15zM220.461 14.148h10.279v2.83h-6.903v3.817h5.863v2.83h-5.863v4.398h7.159v2.83h-10.535z"/></g><defs><clipPath id="a"><path fill="#fff" d="M0 .5h231v44H0z"/></clipPath></defs></svg>